<?xml version="1.0" standalone="no"?>
<!DOCTYPE svg PUBLIC "-//W3C//DTD SVG 20010904//EN"
 "http://www.w3.org/TR/2001/REC-SVG-20010904/DTD/svg10.dtd">
<svg version="1.0" xmlns="http://www.w3.org/2000/svg"
 width="512.000000pt" height="512.000000pt" viewBox="0 0 512.000000 512.000000"
 preserveAspectRatio="xMidYMid meet">

<g transform="translate(0.000000,512.000000) scale(0.100000,-0.100000)"
fill="#000000" stroke="none">
<path d="M3455 4583 c-259 -55 -506 -132 -620 -191 -154 -81 -258 -240 -305
-466 l-11 -55 -60 79 c-104 138 -268 270 -336 270 -41 0 -73 -30 -73 -68 0
-36 14 -53 74 -86 69 -40 185 -154 246 -241 28 -42 72 -118 96 -170 25 -53 55
-102 67 -110 18 -12 44 -12 148 -5 320 25 539 138 660 340 55 93 123 267 175
448 52 181 54 212 18 241 -26 21 -39 23 -79 14z m-92 -256 c-74 -243 -142
-385 -222 -465 -50 -50 -151 -108 -236 -136 -56 -18 -246 -48 -254 -40 -12 12
21 222 49 305 63 190 134 257 353 334 93 33 319 94 329 89 3 -2 -5 -41 -19
-87z"/>
<path d="M1655 3349 c-278 -52 -487 -223 -625 -510 -90 -190 -120 -336 -120
-584 0 -600 213 -1117 621 -1510 160 -154 276 -206 459 -206 104 0 172 15 331
74 193 72 323 68 520 -14 105 -43 188 -60 293 -60 108 0 184 19 280 68 56 29
99 65 201 168 72 71 158 166 190 210 265 355 405 794 405 1265 0 253 -30 399
-120 589 -212 443 -591 607 -1100 475 -280 -72 -601 -73 -850 -3 -163 46 -358
61 -485 38z m458 -182 c184 -48 305 -61 502 -54 162 6 309 28 450 69 48 14
112 22 205 25 116 5 148 2 219 -15 266 -68 437 -258 536 -598 60 -204 49 -574
-25 -866 -84 -328 -233 -589 -479 -841 -100 -103 -127 -124 -200 -160 -83 -41
-86 -42 -190 -42 -102 1 -111 3 -231 49 -69 26 -156 54 -193 62 -145 30 -295
12 -472 -56 -196 -77 -302 -79 -440 -11 -69 34 -97 57 -196 158 -219 224 -344
426 -439 712 -108 322 -136 752 -65 995 97 335 267 526 527 596 60 17 97 19
213 17 122 -4 158 -9 278 -40z"/>
<path d="M1691 2898 c-157 -81 -283 -250 -340 -458 -22 -78 -17 -111 18 -129
59 -32 96 -1 130 109 53 172 138 286 263 350 75 39 96 68 79 113 -21 55 -64
59 -150 15z"/>
</g>
</svg>
