<?xml version="1.0" standalone="no"?>
<!DOCTYPE svg PUBLIC "-//W3C//DTD SVG 20010904//EN"
 "http://www.w3.org/TR/2001/REC-SVG-20010904/DTD/svg10.dtd">
<svg version="1.0" xmlns="http://www.w3.org/2000/svg"
 width="512.000000pt" height="512.000000pt" viewBox="0 0 512.000000 512.000000"
 preserveAspectRatio="xMidYMid meet">

<g transform="translate(0.000000,512.000000) scale(0.100000,-0.100000)"
fill="#000000" stroke="none">
<path d="M3030 4496 c-88 -19 -141 -39 -228 -86 -119 -65 -257 -181 -355 -299
l-37 -44 -15 39 c-33 81 -107 221 -141 267 l-35 48 -47 -37 c-26 -21 -51 -41
-56 -45 -5 -5 9 -36 32 -71 63 -96 129 -247 166 -376 131 -456 79 -918 -143
-1259 l-40 -62 56 -41 c31 -22 59 -40 62 -40 9 0 78 111 116 187 122 242 181
559 156 845 -6 73 -14 153 -18 177 l-6 44 80 -66 c116 -96 308 -299 386 -408
84 -117 189 -326 221 -441 28 -99 56 -245 56 -298 0 -54 7 -59 83 -53 l67 6 0
32 c0 54 -37 253 -64 347 -79 270 -258 550 -506 792 l-110 107 73 -8 c39 -4
133 -8 207 -7 224 2 312 32 475 165 137 111 287 208 432 282 91 46 125 69 133
88 13 30 0 73 -27 87 -10 5 -83 12 -163 15 -148 6 -227 19 -379 64 -162 49
-186 54 -276 58 -56 3 -114 -1 -155 -9z m340 -175 c52 -17 141 -41 198 -53 56
-12 102 -24 102 -27 -1 -3 -38 -29 -83 -58 -45 -29 -136 -95 -202 -148 -150
-120 -191 -135 -382 -142 -78 -3 -165 -1 -215 6 -114 17 -268 53 -268 63 0 17
128 155 201 216 80 67 220 143 309 167 88 24 224 14 340 -24z"/>
<path d="M1365 2614 c-228 -48 -389 -171 -503 -384 -81 -149 -112 -267 -112
-420 0 -456 324 -883 761 -1002 73 -19 107 -22 264 -22 163 0 189 3 280 27 55
15 142 47 193 72 l93 45 -37 57 c-20 32 -38 60 -40 62 -2 2 -43 -14 -91 -37
-143 -68 -224 -85 -393 -85 -161 0 -249 17 -367 72 -187 88 -360 262 -444 446
-96 212 -102 422 -18 634 102 255 275 391 501 391 85 0 138 -20 266 -98 187
-115 259 -146 455 -197 91 -24 129 -30 132 -22 14 43 36 129 33 131 -1 2 -52
15 -113 30 -155 38 -230 68 -353 144 -160 98 -222 130 -287 147 -54 14 -172
19 -220 9z"/>
<path d="M2789 2291 c-149 -48 -295 -175 -366 -321 -60 -123 -74 -183 -80
-352 -6 -166 7 -248 59 -372 65 -154 206 -327 349 -428 210 -150 473 -225 695
-200 437 50 815 374 910 778 20 88 14 338 -11 429 -32 116 -93 224 -175 306
-166 168 -320 208 -600 158 -66 -12 -158 -20 -215 -20 -57 0 -149 8 -215 20
-143 26 -275 26 -351 2z m323 -151 c171 -26 315 -25 492 1 187 28 253 24 342
-21 194 -98 294 -303 280 -570 -9 -158 -47 -273 -132 -400 -50 -74 -151 -176
-228 -229 -70 -48 -202 -108 -291 -132 -115 -32 -327 -32 -440 -1 -89 25 -222
85 -291 133 -77 53 -179 155 -230 231 -85 126 -121 239 -130 398 -13 242 66
431 222 535 121 80 181 89 406 55z"/>
<path d="M2812 1885 c-89 -80 -128 -204 -110 -351 10 -89 27 -114 77 -114 59
0 66 15 66 149 0 131 8 153 75 217 50 47 55 91 14 123 -40 31 -66 26 -122 -24z"/>
<path d="M1354 2214 c-95 -50 -160 -131 -195 -245 -35 -112 -16 -180 50 -179
42 1 62 24 80 97 17 66 37 111 63 144 20 25 89 69 108 69 46 0 67 83 30 120
-28 28 -77 25 -136 -6z"/>
</g>
</svg>
