<?xml version="1.0" standalone="no"?>
<!DOCTYPE svg PUBLIC "-//W3C//DTD SVG 20010904//EN"
 "http://www.w3.org/TR/2001/REC-SVG-20010904/DTD/svg10.dtd">
<svg version="1.0" xmlns="http://www.w3.org/2000/svg"
 width="512.000000pt" height="512.000000pt" viewBox="0 0 512.000000 512.000000"
 preserveAspectRatio="xMidYMid meet">

<g transform="translate(0.000000,512.000000) scale(0.100000,-0.100000)"
fill="#000000" stroke="none">
<path d="M2010 4786 c-141 -30 -261 -88 -363 -175 -359 -304 -383 -844 -51
-1175 156 -156 338 -231 564 -231 226 0 408 75 564 231 156 156 231 338 231
564 0 174 -36 298 -124 432 -113 173 -274 288 -481 345 -78 21 -260 26 -340 9z"/>
<path d="M1948 3025 c-498 -68 -933 -380 -1197 -858 -138 -251 -230 -568 -261
-902 -17 -191 -27 -168 103 -229 446 -210 931 -347 1364 -387 149 -13 413 -6
578 16 167 22 165 22 165 57 0 25 16 47 86 119 59 59 85 93 81 103 -5 13 -28
16 -132 16 -120 0 -127 1 -150 25 l-25 24 0 271 0 271 25 24 c23 24 30 25 150
25 104 0 127 3 132 16 4 10 -22 44 -81 103 -129 132 -133 119 102 353 234 235
221 231 353 102 59 -59 93 -85 103 -81 13 5 16 28 16 132 0 122 1 127 26 151
14 14 24 30 22 34 -9 25 -151 178 -220 237 -360 308 -790 439 -1240 378z"/>
<path d="M3520 2131 c0 -131 -8 -144 -110 -186 -117 -49 -118 -49 -213 44
l-83 80 -112 -112 -111 -112 80 -82 c93 -94 93 -96 44 -213 -42 -102 -55 -110
-186 -110 l-109 0 0 -160 0 -160 109 0 c131 0 144 -8 186 -110 49 -117 49
-118 -44 -213 l-80 -83 112 -112 112 -111 82 80 c94 93 96 93 213 44 102 -42
110 -55 110 -186 l0 -109 160 0 160 0 0 109 c0 131 8 144 110 186 117 49 119
49 213 -44 l82 -80 112 111 112 112 -80 83 c-93 95 -93 96 -44 213 42 102 55
110 186 110 l109 0 0 160 0 160 -109 0 c-131 0 -144 8 -186 110 -49 117 -49
119 44 213 l80 82 -111 112 -112 112 -83 -80 c-95 -93 -96 -93 -213 -44 -102
42 -110 55 -110 186 l0 109 -160 0 -160 0 0 -109z m311 -572 c67 -36 98 -68
137 -143 22 -43 26 -64 26 -136 1 -78 -2 -90 -33 -148 -38 -70 -70 -100 -145
-140 -43 -22 -64 -26 -136 -26 -72 0 -93 4 -136 26 -75 40 -107 70 -145 140
-31 58 -34 70 -33 148 0 72 4 93 26 136 38 73 69 106 129 139 71 38 102 45
182 40 51 -3 81 -11 128 -36z"/>
<path d="M3615 1426 c-101 -44 -125 -178 -46 -257 65 -65 157 -65 222 0 124
124 -15 327 -176 257z"/>
</g>
</svg>
