<?xml version="1.0" standalone="no"?>
<!DOCTYPE svg PUBLIC "-//W3C//DTD SVG 20010904//EN"
 "http://www.w3.org/TR/2001/REC-SVG-20010904/DTD/svg10.dtd">
<svg version="1.0" xmlns="http://www.w3.org/2000/svg"
 width="512.000000pt" height="512.000000pt" viewBox="0 0 512.000000 512.000000"
 preserveAspectRatio="xMidYMid meet">

<g transform="translate(0.000000,512.000000) scale(0.100000,-0.100000)"
fill="#000000" stroke="none">
<path d="M2665 4204 c-11 -2 -60 -12 -110 -21 -182 -33 -404 -127 -574 -243
-261 -179 -622 -540 -801 -801 -114 -166 -196 -357 -242 -560 -19 -88 -23
-132 -23 -284 0 -243 30 -382 127 -581 l39 -80 -36 -60 c-133 -220 -74 -476
133 -572 50 -24 69 -27 157 -26 111 1 154 13 246 69 l56 34 79 -38 c195 -95
337 -126 579 -126 152 0 196 4 284 23 352 79 632 252 992 611 362 363 540 654
616 1011 25 120 25 411 0 530 -24 111 -60 216 -108 314 l-38 79 34 56 c55 90
68 135 69 246 1 89 -2 106 -26 157 -97 207 -352 266 -572 133 l-60 -36 -80 39
c-189 92 -322 122 -551 127 -93 2 -179 2 -190 -1z m345 -149 c123 -22 241 -62
358 -122 57 -29 113 -53 124 -53 12 0 56 22 98 49 93 60 166 86 221 78 55 -7
125 -53 163 -106 28 -39 31 -50 31 -115 -1 -78 -14 -111 -86 -218 -22 -31 -39
-66 -39 -76 0 -11 25 -68 55 -128 154 -309 177 -610 69 -934 -84 -252 -240
-477 -539 -775 -298 -299 -523 -455 -775 -539 -344 -114 -686 -79 -1000 104
-49 28 -73 25 -138 -19 -107 -72 -140 -85 -218 -86 -65 0 -76 3 -115 31 -106
76 -133 191 -71 309 17 33 45 80 61 105 17 25 31 55 31 67 0 11 -24 68 -53
125 -213 415 -178 864 101 1283 160 242 521 607 777 786 151 106 377 202 551
233 105 19 289 19 394 1z"/>
<path d="M2842 2390 c-41 -25 -67 -78 -58 -116 9 -34 65 -91 99 -99 35 -9 95
21 118 59 31 51 25 92 -20 137 -45 45 -86 51 -139 19z"/>
<path d="M2470 2129 c-37 -15 -68 -48 -80 -85 -21 -63 41 -144 110 -144 130 0
165 167 46 224 -39 18 -42 18 -76 5z"/>
<path d="M2905 1908 c-40 -22 -75 -62 -81 -94 -12 -64 49 -134 119 -134 53 0
117 60 117 110 0 44 -33 94 -74 114 -40 19 -54 19 -81 4z"/>
<path d="M2400 1639 c-37 -15 -68 -48 -80 -85 -21 -63 42 -144 113 -144 93 0
149 107 96 182 -12 17 -37 37 -55 44 -38 16 -40 16 -74 3z"/>
</g>
</svg>
