<?xml version="1.0" standalone="no"?>
<!DOCTYPE svg PUBLIC "-//W3C//DTD SVG 20010904//EN"
 "http://www.w3.org/TR/2001/REC-SVG-20010904/DTD/svg10.dtd">
<svg version="1.0" xmlns="http://www.w3.org/2000/svg"
 width="512.000000pt" height="512.000000pt" viewBox="0 0 512.000000 512.000000"
 preserveAspectRatio="xMidYMid meet">

<g transform="translate(0.000000,512.000000) scale(0.100000,-0.100000)"
fill="#000000" stroke="none">
<path d="M2538 4509 c-1008 -106 -1800 -749 -1923 -1559 -39 -254 -3 -550 94
-782 l28 -67 -283 -397 c-199 -278 -284 -405 -284 -423 0 -15 7 -36 15 -48 33
-48 37 -47 591 74 l521 113 113 -75 c284 -190 648 -324 1035 -382 182 -27 581
-24 770 5 725 113 1318 487 1620 1022 146 258 203 497 192 802 -9 240 -49 396
-157 613 -79 157 -170 283 -303 422 -178 184 -348 307 -588 427 -280 140 -567
221 -899 256 -111 11 -431 11 -542 -1z m652 -184 c252 -39 479 -109 695 -215
237 -116 401 -234 567 -409 190 -200 312 -416 376 -668 25 -101 27 -121 26
-308 -1 -184 -3 -208 -27 -300 -73 -272 -195 -481 -402 -691 -315 -319 -739
-522 -1255 -601 -162 -25 -549 -25 -710 0 -367 57 -689 177 -959 359 -68 46
-134 90 -146 98 -21 13 -61 6 -457 -81 -238 -53 -434 -95 -436 -93 -2 1 101
147 227 324 173 242 231 330 231 352 0 16 -11 50 -24 76 -35 70 -81 205 -102
302 -26 120 -26 400 0 520 154 710 860 1252 1756 1349 126 14 516 6 640 -14z"/>
<path d="M1901 3554 c-29 -37 -27 -85 5 -115 l26 -24 866 -3 c477 -1 877 0
890 3 62 15 85 100 39 143 l-23 22 -891 0 -892 0 -20 -26z"/>
<path d="M1905 2875 c-25 -24 -32 -65 -19 -100 17 -43 40 -45 504 -45 452 0
468 1 497 39 21 27 15 79 -12 106 l-24 25 -461 0 -461 0 -24 -25z"/>
<path d="M1925 2208 c-52 -28 -62 -92 -20 -133 l24 -25 631 0 631 0 24 25 c25
24 32 65 19 100 -17 44 -28 45 -676 45 -424 -1 -619 -4 -633 -12z"/>
</g>
</svg>
