<?xml version="1.0" standalone="no"?>
<!DOCTYPE svg PUBLIC "-//W3C//DTD SVG 20010904//EN"
 "http://www.w3.org/TR/2001/REC-SVG-20010904/DTD/svg10.dtd">
<svg version="1.0" xmlns="http://www.w3.org/2000/svg"
 width="512.000000pt" height="512.000000pt" viewBox="0 0 512.000000 512.000000"
 preserveAspectRatio="xMidYMid meet">

<g transform="translate(0.000000,512.000000) scale(0.100000,-0.100000)"
fill="#000000" stroke="none">
<path d="M3210 4705 c-268 -62 -467 -143 -549 -225 -58 -58 -121 -177 -147
-279 -10 -39 -21 -71 -24 -71 -3 0 -16 17 -30 37 -39 58 -149 163 -214 205
-86 55 -145 49 -162 -17 -8 -34 10 -61 69 -99 30 -18 71 -49 92 -67 60 -53
152 -183 201 -286 53 -109 51 -109 198 -100 207 12 383 81 495 195 99 99 166
244 246 525 38 135 38 167 2 192 -28 20 -52 18 -177 -10z m24 -172 c-16 -72
-69 -217 -109 -299 -58 -120 -130 -189 -242 -232 -81 -31 -173 -52 -230 -52
-41 0 -42 10 -13 151 47 229 113 306 330 384 63 22 237 72 263 74 4 1 5 -11 1
-26z"/>
<path d="M1996 3585 c-514 -84 -899 -476 -1051 -1071 -69 -267 -82 -579 -35
-818 117 -594 594 -1153 1095 -1282 89 -23 113 -25 220 -21 83 4 152 14 224
32 l104 27 126 -29 c168 -37 335 -39 456 -5 498 143 957 691 1077 1284 32 161
32 449 0 623 -120 639 -548 1142 -1065 1251 -166 34 -345 27 -514 -22 -77 -22
-84 -23 -125 -8 -134 47 -356 64 -512 39z m429 -165 c170 -46 306 -127 465
-276 107 -100 132 -112 170 -74 13 13 20 33 20 58 0 34 -8 45 -90 124 -50 48
-123 108 -162 135 l-70 48 43 8 c74 14 285 1 372 -22 407 -108 735 -479 862
-976 46 -180 59 -310 52 -507 -9 -235 -50 -400 -152 -613 -207 -428 -609 -761
-946 -782 -92 -6 -219 4 -219 16 0 5 26 25 58 46 89 59 277 255 353 370 115
173 195 352 243 540 52 208 52 260 -1 284 -33 15 -47 14 -73 -7 -17 -13 -27
-44 -46 -140 -33 -169 -73 -285 -148 -438 -163 -329 -404 -547 -711 -640 -80
-24 -106 -28 -240 -28 -133 -1 -158 2 -220 23 -465 157 -858 660 -940 1201
-19 123 -19 359 0 502 84 638 430 1067 938 1164 109 20 340 12 442 -16z"/>
<path d="M1840 3092 c-33 -16 -87 -58 -135 -107 -89 -88 -144 -185 -185 -322
-19 -63 -20 -75 -8 -100 18 -38 61 -52 96 -32 21 11 34 35 58 104 17 50 43
114 58 144 36 69 117 150 181 181 72 34 85 47 85 91 0 71 -57 87 -150 41z"/>
</g>
</svg>
