<?xml version="1.0" standalone="no"?>
<!DOCTYPE svg PUBLIC "-//W3C//DTD SVG 20010904//EN"
 "http://www.w3.org/TR/2001/REC-SVG-20010904/DTD/svg10.dtd">
<svg version="1.0" xmlns="http://www.w3.org/2000/svg"
 width="512.000000pt" height="512.000000pt" viewBox="0 0 512.000000 512.000000"
 preserveAspectRatio="xMidYMid meet">

<g transform="translate(0.000000,512.000000) scale(0.100000,-0.100000)"
fill="#000000" stroke="none">
<path d="M3301 4465 c-178 -39 -348 -172 -429 -336 -95 -193 -95 -385 0 -578
82 -166 251 -297 434 -336 451 -96 855 308 759 759 -72 342 -420 565 -764 491z"/>
<path d="M1541 4145 c-178 -39 -348 -172 -429 -336 -95 -193 -95 -385 0 -578
82 -166 251 -297 434 -336 451 -96 855 308 759 759 -72 342 -420 565 -764 491z"/>
<path d="M3300 3034 c-277 -35 -527 -151 -723 -336 l-79 -73 95 -78 c354 -290
569 -755 603 -1304 l7 -111 116 -7 c417 -27 896 80 1365 303 l118 56 -6 91
c-54 749 -468 1296 -1086 1436 -83 19 -331 33 -410 23z"/>
<path d="M1540 2714 c-619 -79 -1076 -558 -1189 -1245 -11 -68 -23 -163 -27
-211 l-6 -87 59 -29 c330 -167 778 -300 1123 -333 426 -41 937 67 1424 299
l118 56 -6 91 c-54 749 -468 1296 -1086 1436 -83 19 -331 33 -410 23z"/>
</g>
</svg>
